<?xml version="1.0" encoding="utf-8"?>
<!-- Generator: Adobe Illustrator 28.0.0, SVG Export Plug-In . SVG Version: 6.00 Build 0)  -->
<svg version="1.1" id="Livello_1" xmlns="http://www.w3.org/2000/svg" xmlns:xlink="http://www.w3.org/1999/xlink" x="0px" y="0px"
	 viewBox="0 0 651.9 429" style="enable-background:new 0 0 651.9 429;" xml:space="preserve">
<style type="text/css">
	.st0{fill:#38383A;}
</style>
<g>
	<g>
		<path class="st0" d="M132.3,324.2c1.4,0,2.6-0.4,3.4-1.1c0.8-0.8,1.4-1.9,1.7-3.5v-8.5c-1-0.5-2.5-0.8-4.4-0.8
			c-1.9,0-3.4,0.6-4.5,1.7c-1.1,1.1-1.6,2.8-1.6,5.2c0,1,0.1,2,0.3,2.8c0.2,0.8,0.5,1.6,0.9,2.2c0.4,0.6,1,1.1,1.6,1.5
			C130.5,324.1,131.3,324.2,132.3,324.2 M140.3,327.1c0,1.1-0.2,2.1-0.6,3c-0.4,0.9-1,1.5-1.8,2.1c-0.8,0.5-1.6,1-2.6,1.2
			c-1,0.3-2.1,0.4-3.3,0.4c-1.4,0-2.6-0.1-3.7-0.4c-1.1-0.3-2-0.7-2.7-1.1l1.4-2.5c0.2,0.2,0.5,0.4,0.8,0.6c0.3,0.2,0.7,0.3,1.2,0.5
			c0.5,0.2,0.9,0.3,1.4,0.4c0.5,0.1,1,0.1,1.5,0.1c1,0,1.9-0.1,2.6-0.3c0.7-0.2,1.3-0.5,1.7-0.9c0.4-0.4,0.7-0.9,0.9-1.6
			c0.2-0.6,0.3-1.4,0.3-2.4v-2h-0.1c-0.5,0.8-1.3,1.4-2.1,1.8c-0.9,0.4-2,0.6-3.3,0.6c-2.7,0-4.7-0.8-6-2.3
			c-1.3-1.5-1.9-3.9-1.9-7.1c0-3.1,0.8-5.4,2.4-6.9c1.6-1.6,4-2.3,7.2-2.3c1.5,0,2.7,0.1,3.8,0.3c1,0.2,2,0.5,2.9,0.8V327.1z"/>
		<path class="st0" d="M150.3,326.2v-2.4h4.8v-13.1h-4.8v-2.4h6.7l0.6,2.3h0.2c0.8-0.7,1.7-1.4,2.7-1.9c1-0.5,2.2-0.8,3.6-0.8
			c0.8,0,1.5,0.2,2,0.5c0.5,0.3,0.9,0.8,1.1,1.4c0.3,0.6,0.5,1.3,0.6,2.2c0.1,0.8,0.1,1.8,0.1,2.9l-2.5,0c0-1.5-0.2-2.6-0.4-3.3
			c-0.3-0.7-0.8-1.1-1.6-1.1c-0.7,0-1.4,0.1-2,0.3c-0.6,0.2-1.1,0.5-1.6,0.8c-0.4,0.3-0.8,0.6-1.1,0.9c-0.3,0.3-0.5,0.6-0.7,0.8
			v10.5h6.9v2.4H150.3z"/>
		<path class="st0" d="M183.4,324.1c0.7,0,1.3-0.1,1.9-0.3c0.6-0.2,1.1-0.5,1.5-0.8c0.4-0.3,0.8-0.7,1.1-1.1
			c0.3-0.4,0.5-0.8,0.6-1.1v-2.5c-1.2-0.2-2.4-0.3-3.4-0.3c-1.1,0-2,0.1-2.7,0.3c-0.8,0.2-1.4,0.6-1.8,1.1c-0.4,0.5-0.6,1.1-0.6,1.9
			c0,0.8,0.3,1.5,0.8,2.1C181.2,323.8,182.2,324.1,183.4,324.1 M178.1,309.7c1-0.6,2.2-1,3.5-1.3c1.3-0.3,2.6-0.4,3.8-0.4
			c1.2,0,2.2,0.2,3,0.6c0.8,0.4,1.4,0.9,1.8,1.5c0.4,0.6,0.7,1.3,0.9,2.1c0.2,0.8,0.2,1.6,0.2,2.3c0,0.9,0,1.9-0.1,2.9
			c0,1-0.1,2.1-0.1,3.1c0,1.2,0.1,2.3,0.2,3.4h2.4v2.3H189l-0.3-2.7h-0.2c-0.1,0.2-0.4,0.5-0.6,0.8c-0.3,0.3-0.7,0.7-1.1,1
			c-0.5,0.3-1,0.6-1.7,0.8c-0.7,0.2-1.5,0.4-2.4,0.4c-1.8,0-3.2-0.5-4.2-1.4c-1-0.9-1.5-2.2-1.5-3.7c0-1.2,0.3-2.2,0.8-3
			c0.5-0.8,1.3-1.4,2.3-1.9c1-0.4,2.2-0.7,3.6-0.8c1.4-0.1,3,0,4.8,0.3c0.1-1.1,0.1-2,0.1-2.7s-0.3-1.3-0.6-1.7
			c-0.3-0.4-0.7-0.7-1.3-0.9c-0.5-0.2-1.2-0.3-2-0.3c-1.1,0-2.1,0.1-3.1,0.4c-1,0.3-1.9,0.6-2.6,0.9L178.1,309.7z"/>
		<path class="st0" d="M203.7,326.2v-2.4h4.3v-13.1h-4.3v-2.4h4.3v-1c0-2.2,0.6-3.9,1.8-4.9c1.2-1,2.8-1.5,5-1.5
			c0.8,0,1.5,0,2.1,0.1c0.6,0.1,1.3,0.3,2,0.6l-0.6,2.3c-0.6-0.3-1.2-0.4-1.8-0.5c-0.6-0.1-1.1-0.1-1.6-0.1c-1.6,0-2.6,0.4-3.2,1.2
			c-0.6,0.8-0.9,2-0.9,3.8h7.4v2.4h-7.4v13.1h7.4v2.4H203.7z"/>
		<path class="st0" d="M235.9,303.2c0-0.6,0.2-1.2,0.6-1.7c0.4-0.5,1-0.7,1.7-0.7c0.7,0,1.3,0.2,1.7,0.7c0.5,0.5,0.7,1,0.7,1.7
			c0,0.6-0.2,1.1-0.7,1.6c-0.5,0.4-1,0.6-1.7,0.6c-0.7,0-1.2-0.2-1.7-0.6C236.1,304.3,235.9,303.8,235.9,303.2 M230.7,326.2v-2.4
			h6.2v-13.1h-6.2v-2.4h9.1v15.5h6.1v2.4H230.7z"/>
		<path class="st0" d="M268.9,321.4c0-0.8-0.3-1.4-0.9-1.8c-0.6-0.4-1.3-0.8-2.2-1c-0.9-0.2-1.8-0.5-2.9-0.7c-1-0.2-2-0.5-2.9-0.9
			c-0.9-0.4-1.6-0.8-2.2-1.5c-0.6-0.6-0.9-1.5-0.9-2.6c0-0.9,0.2-1.7,0.6-2.3c0.4-0.6,0.9-1.2,1.6-1.6c0.6-0.4,1.4-0.7,2.3-0.9
			c0.9-0.2,1.8-0.3,2.7-0.3c1.7,0,3.1,0.2,4.3,0.6c1.2,0.4,2.2,0.9,2.9,1.3l-1.1,2.3c-0.8-0.4-1.6-0.8-2.6-1.2
			c-0.9-0.4-2.1-0.6-3.4-0.6c-0.5,0-1,0.1-1.6,0.2c-0.5,0.1-1,0.3-1.4,0.5c-0.4,0.2-0.8,0.5-1,0.8c-0.2,0.3-0.4,0.8-0.4,1.3
			c0,0.6,0.3,1.1,0.9,1.4c0.6,0.3,1.3,0.6,2.2,0.8c0.9,0.2,1.8,0.4,2.9,0.6c1,0.2,2,0.5,2.9,0.9c0.9,0.4,1.6,0.9,2.2,1.5
			c0.6,0.6,0.9,1.5,0.9,2.6c0,1.6-0.7,3-2,4.1c-1.3,1.1-3.3,1.6-5.9,1.6c-0.8,0-1.6-0.1-2.3-0.2c-0.8-0.1-1.5-0.3-2.1-0.6
			c-0.7-0.2-1.3-0.5-1.8-0.8c-0.6-0.3-1-0.6-1.4-0.9l1.4-2.3c0.3,0.3,0.7,0.6,1.1,0.9s1,0.6,1.6,0.8c0.6,0.2,1.2,0.4,1.8,0.6
			c0.7,0.1,1.3,0.2,2,0.2c0.6,0,1.2-0.1,1.8-0.2c0.6-0.1,1.1-0.3,1.5-0.5c0.4-0.2,0.8-0.5,1-0.9
			C268.8,322.3,268.9,321.9,268.9,321.4"/>
		<path class="st0" d="M289,326.2v-11.9c0-0.5,0-1-0.1-1.5c0-0.5-0.1-0.9-0.3-1.3c-0.1-0.4-0.3-0.7-0.6-0.9s-0.6-0.3-1-0.3
			c-0.8,0-1.5,0.3-2.1,1c-0.6,0.7-1,1.5-1.3,2.5v12.3h-2.7v-17.9h1.9l0.5,2.2h0.1c0.2-0.4,0.5-0.7,0.7-1c0.2-0.3,0.5-0.6,0.8-0.8
			c0.3-0.2,0.7-0.4,1.1-0.6c0.4-0.1,0.9-0.2,1.5-0.2c0.4,0,0.7,0.1,1.1,0.2c0.4,0.1,0.7,0.3,1.1,0.5c0.3,0.2,0.6,0.5,0.8,0.9
			c0.2,0.4,0.4,0.8,0.5,1.4c0.6-0.9,1.2-1.7,1.8-2.2c0.7-0.5,1.6-0.8,2.8-0.8c0.8,0,1.4,0.1,1.9,0.4c0.5,0.3,0.9,0.6,1.1,1.1
			c0.3,0.5,0.5,1.1,0.6,1.8c0.1,0.7,0.2,1.4,0.2,2.3v12.8h-2.7V314c0-0.5,0-1-0.1-1.4c0-0.4-0.1-0.8-0.3-1.2
			c-0.1-0.3-0.3-0.6-0.5-0.8c-0.2-0.2-0.5-0.3-0.9-0.3c-0.8,0-1.5,0.3-2.1,1c-0.6,0.7-1,1.6-1.3,2.9v12H289z"/>
		<path class="st0" d="M315,303.2c0-0.6,0.2-1.2,0.6-1.7c0.4-0.5,1-0.7,1.7-0.7c0.7,0,1.3,0.2,1.7,0.7c0.5,0.5,0.7,1,0.7,1.7
			c0,0.6-0.2,1.1-0.7,1.6c-0.5,0.4-1,0.6-1.7,0.6c-0.7,0-1.2-0.2-1.7-0.6C315.2,304.3,315,303.8,315,303.2 M309.7,326.2v-2.4h6.2
			v-13.1h-6.2v-2.4h9.1v15.5h6.1v2.4H309.7z"/>
		<path class="st0" d="M370.8,303.2c0-0.6,0.2-1.2,0.6-1.7c0.4-0.5,1-0.7,1.7-0.7c0.7,0,1.3,0.2,1.7,0.7c0.5,0.5,0.7,1,0.7,1.7
			c0,0.6-0.2,1.1-0.7,1.6c-0.5,0.4-1,0.6-1.7,0.6c-0.7,0-1.2-0.2-1.7-0.6C371,304.3,370.8,303.8,370.8,303.2 M365.6,326.2v-2.4h6.2
			v-13.1h-6.2v-2.4h9.1v15.5h6.1v2.4H365.6z"/>
		<path class="st0" d="M386.1,308.3h4.3v-3.5l2.8-0.8v4.3h9.6v2.4h-9.6v8.5c0,1.7,0.4,3,1.3,3.9c0.8,0.8,2.1,1.3,3.6,1.3
			c1.1,0,2-0.2,2.8-0.6c0.8-0.4,1.5-0.8,2.2-1.3l0.9,2.1c-0.8,0.7-1.8,1.2-3,1.6c-1.2,0.4-2.3,0.6-3.6,0.6c-1,0-1.9-0.1-2.7-0.4
			c-0.9-0.3-1.6-0.7-2.2-1.3c-0.6-0.6-1.2-1.3-1.5-2.2c-0.4-0.9-0.6-2-0.6-3.2v-8.9h-4.3V308.3z"/>
		<path class="st0" d="M417.3,303.2c0-0.6,0.2-1.2,0.6-1.7c0.4-0.5,1-0.7,1.7-0.7c0.7,0,1.3,0.2,1.7,0.7c0.5,0.5,0.7,1,0.7,1.7
			c0,0.6-0.2,1.1-0.7,1.6c-0.5,0.4-1,0.6-1.7,0.6c-0.7,0-1.2-0.2-1.7-0.6C417.5,304.3,417.3,303.8,417.3,303.2 M412,326.2v-2.4h6.2
			v-13.1H412v-2.4h9.1v15.5h6.1v2.4H412z"/>
		<path class="st0" d="M437.9,314.5c0-0.2,0-0.5,0-0.8c0-0.3,0-0.7-0.1-1.1c0-0.4-0.1-0.7-0.1-1.1c0-0.4-0.1-0.7-0.1-0.9h-2.4v-2.3
			h4.8l0.3,2.9h0.2c0.2-0.4,0.6-0.8,1-1.2c0.4-0.4,0.9-0.8,1.4-1.1c0.5-0.3,1.1-0.6,1.8-0.8c0.6-0.2,1.3-0.3,2-0.3
			c1.1,0,2.1,0.1,2.9,0.4c0.8,0.2,1.6,0.7,2.1,1.3c0.6,0.6,1,1.4,1.3,2.5c0.3,1,0.4,2.4,0.4,4v10.3h-2.8v-9.7c0-2-0.3-3.5-1-4.5
			c-0.6-1-1.8-1.5-3.5-1.5c-0.6,0-1.2,0.1-1.8,0.4c-0.6,0.3-1.1,0.6-1.6,1c-0.5,0.4-0.9,0.9-1.2,1.4c-0.4,0.5-0.6,1.1-0.8,1.7v11.2
			h-2.8V314.5z"/>
		<path class="st0" d="M472.4,310.2c-0.8,0-1.5,0.1-2.2,0.2c-0.7,0.2-1.3,0.4-1.9,0.8c-0.5,0.4-1,0.9-1.3,1.5
			c-0.3,0.6-0.6,1.4-0.7,2.3h11.1c-0.1-1.6-0.6-2.8-1.5-3.7C475,310.6,473.8,310.2,472.4,310.2 M479.9,323.9
			c-0.4,0.4-0.9,0.7-1.5,1.1c-0.6,0.3-1.2,0.6-1.9,0.9c-0.7,0.2-1.4,0.4-2.2,0.6c-0.8,0.1-1.5,0.2-2.3,0.2c-1.4,0-2.7-0.2-3.8-0.7
			c-1.1-0.4-2-1.1-2.8-1.9c-0.7-0.8-1.3-1.8-1.7-3c-0.4-1.1-0.6-2.4-0.6-3.9c0-1.5,0.2-2.8,0.6-4c0.4-1.2,1-2.1,1.8-2.9
			c0.8-0.8,1.7-1.4,2.9-1.8c1.1-0.4,2.4-0.6,3.8-0.6c1,0,2,0.1,3,0.4c1,0.3,1.8,0.8,2.6,1.5c0.8,0.7,1.3,1.7,1.7,3
			c0.4,1.3,0.6,2.9,0.4,5h-13.8c0,2.1,0.6,3.8,1.7,4.8c1.2,1.1,2.7,1.6,4.6,1.6c0.6,0,1.3-0.1,1.9-0.2c0.6-0.2,1.2-0.3,1.8-0.6
			c0.6-0.2,1.1-0.5,1.5-0.7c0.4-0.3,0.8-0.5,1-0.7L479.9,323.9z"/>
		<path class="st0" d="M489.7,326.2v-2.4h4.8v-13.1h-4.8v-2.4h6.7l0.6,2.3h0.2c0.8-0.7,1.7-1.4,2.7-1.9c1-0.5,2.2-0.8,3.6-0.8
			c0.8,0,1.5,0.2,2,0.5c0.5,0.3,0.9,0.8,1.1,1.4c0.3,0.6,0.5,1.3,0.6,2.2c0.1,0.8,0.1,1.8,0.1,2.9l-2.5,0c0-1.5-0.2-2.6-0.4-3.3
			c-0.3-0.7-0.8-1.1-1.6-1.1c-0.7,0-1.4,0.1-2,0.3c-0.6,0.2-1.1,0.5-1.6,0.8c-0.4,0.3-0.8,0.6-1.1,0.9c-0.3,0.3-0.5,0.6-0.7,0.8
			v10.5h6.9v2.4H489.7z"/>
		<path class="st0" d="M522.8,324.1c0.7,0,1.3-0.1,1.9-0.3c0.6-0.2,1.1-0.5,1.5-0.8c0.4-0.3,0.8-0.7,1.1-1.1
			c0.3-0.4,0.5-0.8,0.6-1.1v-2.5c-1.2-0.2-2.4-0.3-3.4-0.3c-1.1,0-2,0.1-2.7,0.3c-0.8,0.2-1.4,0.6-1.8,1.1c-0.4,0.5-0.6,1.1-0.6,1.9
			c0,0.8,0.3,1.5,0.8,2.1C520.7,323.8,521.6,324.1,522.8,324.1 M517.5,309.7c1-0.6,2.2-1,3.5-1.3c1.3-0.3,2.6-0.4,3.8-0.4
			c1.2,0,2.2,0.2,3,0.6c0.8,0.4,1.4,0.9,1.8,1.5c0.4,0.6,0.7,1.3,0.9,2.1c0.2,0.8,0.2,1.6,0.2,2.3c0,0.9,0,1.9-0.1,2.9
			c0,1-0.1,2.1-0.1,3.1c0,1.2,0.1,2.3,0.2,3.4h2.4v2.3h-4.7l-0.3-2.7h-0.2c-0.1,0.2-0.4,0.5-0.6,0.8c-0.3,0.3-0.7,0.7-1.1,1
			c-0.5,0.3-1,0.6-1.7,0.8c-0.7,0.2-1.5,0.4-2.4,0.4c-1.8,0-3.2-0.5-4.2-1.4c-1-0.9-1.5-2.2-1.5-3.7c0-1.2,0.3-2.2,0.8-3
			c0.5-0.8,1.3-1.4,2.3-1.9c1-0.4,2.2-0.7,3.6-0.8c1.4-0.1,3,0,4.8,0.3c0.1-1.1,0.1-2,0.1-2.7c-0.1-0.7-0.3-1.3-0.6-1.7
			s-0.7-0.7-1.3-0.9c-0.5-0.2-1.2-0.3-2-0.3c-1.1,0-2.1,0.1-3.1,0.4c-1,0.3-1.9,0.6-2.6,0.9L517.5,309.7z"/>
		<path class="st0" d="M543.3,314.5c0-0.2,0-0.5,0-0.8c0-0.3,0-0.7-0.1-1.1c0-0.4-0.1-0.7-0.1-1.1c0-0.4-0.1-0.7-0.1-0.9h-2.4v-2.3
			h4.8l0.3,2.9h0.2c0.2-0.4,0.6-0.8,1-1.2c0.4-0.4,0.9-0.8,1.4-1.1c0.5-0.3,1.1-0.6,1.8-0.8s1.3-0.3,2-0.3c1.1,0,2.1,0.1,2.9,0.4
			c0.8,0.2,1.6,0.7,2.1,1.3c0.6,0.6,1,1.4,1.3,2.5c0.3,1,0.4,2.4,0.4,4v10.3H556v-9.7c0-2-0.3-3.5-1-4.5c-0.6-1-1.8-1.5-3.5-1.5
			c-0.6,0-1.2,0.1-1.8,0.4c-0.6,0.3-1.1,0.6-1.6,1c-0.5,0.4-0.9,0.9-1.2,1.4c-0.4,0.5-0.6,1.1-0.8,1.7v11.2h-2.8V314.5z"/>
		<path class="st0" d="M567.5,308.3h4.3v-3.5l2.8-0.8v4.3h9.6v2.4h-9.6v8.5c0,1.7,0.4,3,1.3,3.9c0.8,0.8,2.1,1.3,3.6,1.3
			c1.1,0,2-0.2,2.8-0.6c0.8-0.4,1.5-0.8,2.2-1.3l0.9,2.1c-0.8,0.7-1.8,1.2-3,1.6c-1.2,0.4-2.3,0.6-3.6,0.6c-1,0-1.9-0.1-2.7-0.4
			c-0.9-0.3-1.6-0.7-2.2-1.3c-0.6-0.6-1.2-1.3-1.5-2.2c-0.4-0.9-0.6-2-0.6-3.2v-8.9h-4.3V308.3z"/>
		<path class="st0" d="M598.6,303.2c0-0.6,0.2-1.2,0.6-1.7c0.4-0.5,1-0.7,1.7-0.7c0.7,0,1.3,0.2,1.7,0.7c0.5,0.5,0.7,1,0.7,1.7
			c0,0.6-0.2,1.1-0.7,1.6c-0.5,0.4-1,0.6-1.7,0.6c-0.7,0-1.2-0.2-1.7-0.6C598.8,304.3,598.6,303.8,598.6,303.2 M593.3,326.2v-2.4
			h6.2v-13.1h-6.2v-2.4h9.1v15.5h6.1v2.4H593.3z"/>
	</g>
	<polygon class="st0" points="229.7,192.3 193.8,260.6 157.9,192.3 157.9,278.8 124,278.8 124,125.6 156.8,125.6 193.8,196.1 
		230.8,125.6 263.6,125.6 263.6,278.8 229.7,278.8 	"/>
	<path class="st0" d="M326,278.8h-31.7v-31.7H326V278.8z M326,230.6h-31.7v-105H326V230.6z"/>
	<path class="st0" d="M395.8,216.9h33.7l-16.9-55.1L395.8,216.9z M485.3,278.8h-36.8l-9.8-32.4h-51.9l-9.8,32.4h-33.5l50.1-153.2
		h41.6L485.3,278.8z"/>
	<g>
		<path class="st0" d="M579.1,179c0-17.3-10.7-26-26.9-26c-16.6,0-27.4,8.8-27.4,26v46.4c0,17.3,10.7,26,26.9,26
			c16.6,0,27.4-8.8,27.4-26V179z M613,225.4c0,36.8-24.1,55.6-61.3,55.6c-36.8,0-60.8-18.8-60.8-55.6V179
			c0-36.8,24.1-55.6,61.3-55.6c36.8,0,60.8,18.8,60.8,55.6V225.4z"/>
	</g>
	<polygon class="st0" points="528.3,100 498.8,151.2 557.9,151.2 	"/>
	<polygon class="st0" points="575.6,100 546.1,151.2 605.2,151.2 	"/>
	<g>
		<path class="st0" d="M99.3,330.7c-19.8-2.6-22.1-13.4-22.1-25.6c0-16.3,3.4-33.7,3.4-51.7c0-14.2-6.3-26.9-21.6-30.6v-1.1
			c15.6-3.4,21.6-16.1,21.6-30.3c0-17.4-3.4-35.6-3.4-52.7c0-11.6,2.4-21.9,22.1-24.5v-7.4c-15.8,0-38.5,3.7-38.5,34.8
			c0,16.9,2.1,36.6,2.1,54.1c0,9.2-0.8,21.4-23.7,22.9l-0.3,7.6c23.5,1.6,24.3,13.7,24.3,22.9c0,16.9-2.1,36.1-2.1,55.1
			c0,30.6,22.7,33.7,38.2,33.7V330.7z"/>
	</g>
</g>
</svg>
