<?xml version="1.0" standalone="no"?>
<!DOCTYPE svg PUBLIC "-//W3C//DTD SVG 20010904//EN"
 "http://www.w3.org/TR/2001/REC-SVG-20010904/DTD/svg10.dtd">
<svg version="1.0" xmlns="http://www.w3.org/2000/svg"
 width="3508.000000pt" height="3508.000000pt" viewBox="0 0 3508.000000 3508.000000"
 preserveAspectRatio="xMidYMid meet">
<metadata>
Created by potrace 1.14, written by Peter Selinger 2001-2017
</metadata>
<g transform="translate(0.000000,3508.000000) scale(0.100000,-0.100000)"
fill="#000000" stroke="none">
<path d="M28769 24129 c-30 -52 -58 -102 -64 -111 -5 -9 -20 -34 -31 -55 -12
-21 -79 -137 -149 -258 -70 -121 -135 -233 -145 -250 -9 -16 -126 -219 -260
-450 -271 -470 -273 -473 -308 -534 -14 -25 -38 -68 -55 -95 -16 -28 -39 -67
-49 -86 -101 -181 -161 -273 -211 -325 -33 -33 -78 -82 -100 -110 -23 -27 -44
-52 -47 -55 -16 -14 -123 -165 -168 -237 -181 -286 -319 -641 -387 -1000 -28
-144 -32 -172 -40 -258 -4 -33 -8 -65 -10 -72 -15 -48 -20 -451 -20 -1768 0
-830 4 -1555 8 -1610 50 -624 225 -1144 531 -1575 86 -120 153 -199 275 -321
144 -143 231 -214 397 -325 351 -233 766 -396 1244 -489 68 -14 87 -17 105
-20 41 -5 121 -17 143 -20 13 -2 53 -7 90 -11 37 -3 76 -8 86 -10 135 -25 889
-25 1076 0 14 2 57 7 95 10 39 4 77 9 85 11 8 2 38 6 65 10 66 8 316 54 335
61 8 3 26 8 40 10 14 3 81 21 150 40 1118 312 1830 1058 2055 2154 4 22 10 57
30 180 5 30 14 97 20 142 17 126 20 405 20 1773 0 1365 -4 1691 -19 1785 -3
14 -7 48 -11 75 -13 106 -32 214 -60 335 -2 8 -8 36 -14 61 -31 134 -105 352
-169 494 -66 146 -200 387 -241 432 -9 10 -25 32 -35 48 -31 48 -129 166 -211
253 -47 50 -97 117 -132 179 -31 54 -72 125 -91 158 -19 33 -45 78 -57 100
-13 22 -50 86 -84 143 -34 57 -61 105 -61 106 0 2 -37 66 -81 142 -45 76 -93
159 -107 184 -14 25 -48 86 -77 135 -105 180 -195 337 -195 341 0 3 -9 17 -19
32 -16 23 -236 402 -309 532 -14 25 -36 62 -49 82 -12 21 -23 40 -23 43 0 3
-12 23 -26 45 l-27 40 -80 -137 c-44 -76 -89 -154 -99 -173 -69 -121 -334
-579 -347 -600 -8 -14 -27 -46 -41 -71 -14 -25 -65 -115 -115 -201 -87 -151
-91 -156 -120 -153 -174 19 -667 26 -875 11 -63 -4 -135 -9 -159 -9 l-44 -2
-90 155 c-49 85 -113 196 -142 245 -29 50 -62 107 -74 128 -34 60 -89 156
-226 392 -70 121 -141 245 -158 275 -16 30 -42 75 -57 99 l-27 43 -54 -93z
m1611 -2892 c463 -43 843 -246 1057 -567 98 -148 183 -371 208 -550 4 -24 8
-47 10 -50 13 -21 17 -365 17 -1606 0 -781 -3 -1445 -7 -1475 -47 -399 -166
-666 -395 -887 -146 -142 -380 -266 -597 -318 -38 -8 -72 -17 -78 -18 -107
-28 -251 -40 -450 -41 -258 0 -427 24 -616 86 -127 42 -313 132 -349 169 -3 3
-23 17 -45 32 -44 30 -129 110 -189 179 -120 137 -225 354 -270 559 -45 202
-45 185 -42 1765 1 825 6 1520 10 1545 12 75 55 251 77 315 33 100 116 257
184 347 220 293 586 474 1040 513 38 4 71 7 72 9 4 3 307 -2 363 -7z"/>
<path d="M4557 23834 c-1 -1 -56 -4 -122 -8 -66 -3 -131 -8 -145 -10 -14 -3
-50 -7 -80 -10 -56 -6 -95 -12 -140 -21 -14 -3 -38 -8 -55 -11 -241 -42 -535
-156 -720 -280 -311 -208 -515 -500 -626 -893 -16 -58 -32 -119 -34 -136 -3
-16 -10 -52 -15 -80 -30 -159 -35 -261 -34 -645 1 -381 6 -545 29 -955 3 -49
8 -137 10 -195 3 -58 8 -134 10 -170 3 -36 7 -110 10 -165 3 -55 7 -129 10
-165 3 -36 7 -128 10 -205 4 -77 8 -171 10 -210 19 -337 26 -939 13 -1100 -28
-343 -171 -604 -418 -763 -101 -64 -288 -147 -380 -167 -8 -2 -44 -10 -80 -19
-89 -21 -221 -43 -305 -51 -38 -4 -81 -9 -95 -10 -14 -2 -30 -4 -35 -4 -6 -1
-11 -16 -11 -33 0 -18 -4 -115 -7 -215 l-6 -183 27 -1 c15 0 34 -2 42 -3 8 -2
44 -6 80 -10 58 -6 201 -28 270 -41 164 -31 394 -123 522 -208 253 -168 373
-392 413 -772 14 -133 4 -736 -20 -1170 -6 -100 -12 -214 -20 -385 -3 -63 -8
-140 -10 -170 -3 -30 -7 -107 -10 -170 -3 -63 -8 -144 -10 -180 -2 -36 -7
-126 -10 -200 -4 -74 -8 -164 -10 -200 -9 -169 -18 -530 -18 -770 -1 -233 2
-315 18 -473 4 -33 19 -123 39 -224 12 -61 52 -189 87 -276 190 -482 574 -798
1133 -932 60 -15 116 -28 125 -30 39 -7 107 -18 121 -20 8 -1 38 -5 65 -9 100
-14 294 -27 438 -30 86 -2 110 0 114 12 3 7 6 101 7 207 l1 194 -70 12 c-38 6
-79 13 -90 16 -11 2 -40 8 -65 13 -131 26 -336 97 -437 151 -78 42 -98 53
-103 60 -3 3 -27 20 -53 38 -149 101 -280 288 -345 492 -70 216 -82 342 -77
779 2 190 6 359 9 375 2 17 7 75 11 130 4 55 8 120 10 145 2 25 6 74 9 110 3
36 8 85 11 110 3 25 7 74 10 110 6 69 12 137 20 210 9 83 16 155 20 195 2 22
7 71 10 110 4 38 8 81 10 95 2 14 7 63 10 110 4 47 8 101 10 120 2 19 6 73 10
120 3 47 8 103 10 125 27 271 27 937 0 1087 -5 27 -33 162 -41 198 -3 14 -22
77 -44 141 -117 354 -336 634 -635 815 -114 70 -297 146 -411 173 -43 10 -53
17 -57 37 -2 13 -1 27 4 29 4 3 54 19 111 36 57 16 117 36 135 44 17 8 34 15
38 15 13 0 181 88 238 124 315 201 539 541 630 957 30 133 35 160 45 254 9 93
8 647 -2 805 -4 69 -9 148 -11 175 -4 70 -16 213 -20 255 -2 19 -6 72 -10 118
-3 45 -8 90 -10 100 -2 15 -6 53 -20 217 -2 22 -6 67 -9 100 -12 109 -15 139
-21 220 -4 44 -8 90 -10 103 -2 12 -7 62 -10 110 -4 48 -8 97 -10 108 -2 12
-6 71 -10 130 -4 60 -9 125 -11 144 -19 188 -26 816 -11 964 35 339 165 600
380 761 203 153 427 236 811 299 16 3 31 7 33 10 5 4 7 278 4 382 l-1 32 -91
-2 c-50 0 -91 -2 -92 -2z"/>
<path d="M6129 22765 c0 -28 0 -8524 0 -8556 l1 -26 949 -1 c704 0 951 3 953
12 2 6 4 1094 4 2418 -1 1324 2 2404 5 2400 6 -7 57 -102 180 -337 40 -77 89
-170 109 -207 19 -37 59 -113 89 -170 29 -57 73 -139 96 -183 41 -77 96 -181
205 -390 71 -136 154 -294 205 -390 23 -44 68 -129 100 -190 32 -60 82 -157
113 -215 51 -98 76 -146 187 -355 23 -44 75 -143 115 -220 40 -77 110 -210
155 -295 45 -85 113 -213 150 -285 37 -71 85 -161 105 -200 59 -110 151 -286
174 -332 25 -51 14 -63 116 132 40 77 89 172 110 210 43 80 109 207 200 380
34 66 77 147 95 180 18 33 72 137 121 230 49 94 102 196 119 227 28 54 59 113
180 343 108 206 159 303 205 390 26 50 71 135 100 190 29 55 68 127 86 161 17
34 72 137 120 230 48 93 98 189 112 214 14 25 48 90 77 145 91 175 197 377
252 480 29 55 72 137 96 183 l42 82 3 -2419 2 -2419 953 2 952 1 0 4300 0
4300 -918 0 c-603 0 -921 -3 -927 -10 -4 -5 -31 -55 -60 -110 -29 -55 -72
-136 -95 -180 -23 -44 -72 -136 -107 -205 -75 -144 -150 -286 -218 -415 -95
-180 -181 -344 -325 -620 -79 -151 -122 -233 -174 -330 -20 -38 -76 -146 -125
-240 -49 -93 -101 -192 -116 -220 -15 -27 -58 -108 -95 -180 -72 -138 -148
-284 -225 -430 -26 -49 -73 -139 -105 -200 -32 -60 -76 -146 -100 -190 -23
-44 -69 -132 -102 -195 -86 -163 -173 -329 -195 -373 -11 -20 -24 -39 -28 -42
-5 -3 -30 37 -55 87 -26 51 -64 125 -85 163 -20 39 -65 124 -100 190 -34 66
-77 147 -95 180 -18 33 -63 119 -100 190 -92 177 -167 320 -219 418 -57 108
-128 243 -211 402 -37 72 -82 157 -100 190 -18 33 -65 123 -105 200 -72 138
-137 263 -210 400 -21 39 -66 124 -100 190 -89 172 -177 339 -220 420 -21 39
-75 142 -120 230 -46 88 -93 179 -106 203 -13 23 -57 106 -98 185 -41 78 -93
176 -115 217 l-39 75 -921 0 c-915 0 -921 0 -922 -20z"/>
<path d="M15689 22780 c-1 -3 -2 -1329 -3 -2947 -1 -2608 1 -2942 14 -2945 8
-2 409 -4 890 -3 l875 0 1 2948 c1 1621 -1 2948 -5 2948 -21 4 -1771 3 -1772
-1z"/>
<path d="M21260 22776 c-6 -6 -10 -14 -10 -19 0 -9 -164 -512 -363 -1117 -33
-102 -62 -189 -63 -195 -1 -5 -29 -91 -62 -190 -33 -99 -101 -308 -151 -465
-51 -157 -96 -294 -101 -305 -5 -11 -64 -189 -130 -395 -67 -206 -139 -427
-160 -490 -84 -257 -206 -630 -350 -1070 -84 -256 -179 -548 -213 -650 -34
-102 -61 -187 -62 -190 0 -3 -53 -165 -118 -360 -64 -195 -129 -395 -146 -445
-127 -390 -473 -1448 -546 -1670 -23 -71 -98 -299 -165 -505 -67 -206 -133
-408 -146 -448 -13 -40 -24 -74 -24 -76 0 -2 423 -4 940 -3 l940 0 21 66 c12
36 27 86 34 111 7 25 29 99 50 165 77 254 139 456 186 613 27 90 51 167 53
171 3 4 7 18 10 32 3 13 19 69 36 124 31 98 99 320 104 340 2 6 16 52 31 103
l29 92 1454 -2 1455 -3 49 -160 c27 -88 62 -203 78 -255 16 -52 72 -234 124
-405 101 -331 244 -804 279 -921 l21 -71 1033 0 c568 0 1033 2 1033 4 0 3 -40
127 -89 276 -112 340 -155 471 -156 477 0 3 -59 181 -129 395 -70 215 -140
428 -156 475 -15 47 -64 195 -108 330 -44 135 -151 461 -237 725 -86 264 -167
512 -180 550 -66 198 -187 568 -190 583 -2 9 -10 35 -18 57 -9 22 -77 229
-152 460 -76 231 -155 474 -177 540 -22 66 -41 125 -42 130 -2 10 -263 806
-311 950 -13 39 -87 266 -165 505 -78 239 -157 480 -175 535 -46 139 -477
1460 -508 1555 -6 19 -15 40 -20 45 -11 13 -2324 14 -2337 1z m1181 -2386 c50
-162 101 -331 115 -375 14 -44 55 -177 90 -295 36 -118 86 -280 111 -360 25
-80 50 -161 55 -180 12 -42 123 -406 144 -470 18 -57 154 -500 159 -520 6 -23
68 -229 114 -378 23 -73 39 -137 37 -141 -5 -7 -1876 -12 -1876 -5 0 3 11 38
80 264 16 52 56 183 89 290 138 455 385 1261 399 1305 3 11 6 22 7 25 0 3 11
37 23 75 93 300 192 625 251 825 18 58 36 116 41 130 5 14 19 59 31 100 l22
75 9 -35 c5 -19 50 -168 99 -330z"/>
<path d="M15686 15960 c-1 -3 -2 -403 -2 -890 l1 -885 891 -1 891 -2 -1 892
-1 891 -888 0 c-489 0 -890 -2 -891 -5z"/>
<path d="M11140 12939 c-129 -18 -222 -77 -262 -166 -26 -59 -34 -104 -37
-215 l-1 -28 -119 0 -119 0 1 -69 1 -69 113 0 c62 1 116 -2 120 -5 8 -9 8
-715 0 -724 -4 -3 -57 -7 -119 -7 l-113 -1 0 -65 0 -65 408 -1 407 -1 0 67 0
67 -177 1 c-98 0 -192 1 -208 1 l-30 1 0 365 0 365 25 1 c14 0 107 0 208 1
l182 1 0 68 0 69 -207 2 -208 3 0 25 c-1 14 3 47 8 74 22 128 81 172 227 170
50 -1 103 -8 130 -17 51 -19 52 -18 70 60 16 64 14 67 -65 83 -68 14 -168 18
-235 9z"/>
<path d="M12483 12936 c-85 -38 -97 -171 -20 -223 68 -47 173 -19 203 53 46
109 -72 219 -183 170z"/>
<path d="M16925 12936 c-44 -20 -64 -47 -73 -98 -21 -108 88 -182 193 -132 87
41 93 166 10 220 -34 22 -94 27 -130 10z"/>
<path d="M20050 12932 c-92 -45 -89 -198 4 -232 63 -22 141 -2 172 44 41 64
20 144 -48 186 -41 25 -82 25 -128 2z"/>
<path d="M22660 12933 c-77 -40 -96 -149 -36 -209 39 -38 122 -46 172 -15 78
47 78 165 -1 217 -38 25 -95 28 -135 7z"/>
<path d="M32853 12943 c-29 -6 -83 -67 -84 -96 -5 -103 39 -157 126 -157 81 0
137 52 137 125 0 93 -77 148 -179 128z"/>
<path d="M21205 12765 c-5 -2 -36 -11 -67 -20 l-58 -16 0 -99 0 -100 -120 0
-120 0 0 -69 0 -68 116 -1 c63 0 117 -2 119 -4 3 -2 5 -130 5 -285 1 -294 6
-337 48 -420 96 -187 364 -243 613 -127 110 51 114 56 82 124 -14 30 -27 57
-29 59 -2 2 -18 -7 -36 -20 -83 -60 -137 -80 -227 -84 -124 -6 -217 42 -259
133 -26 57 -26 58 -28 335 -1 177 2 279 8 283 6 4 127 7 269 7 l259 0 0 68 0
69 -268 0 -269 0 0 103 c-1 56 -2 110 -2 120 -1 16 -13 20 -36 12z"/>
<path d="M31385 12765 c-5 -2 -36 -11 -67 -20 l-58 -16 0 -100 0 -99 -120 0
-120 0 0 -69 0 -70 115 1 c63 1 117 -1 120 -3 2 -3 5 -134 5 -292 1 -315 6
-347 61 -438 71 -114 192 -167 369 -161 100 3 236 49 311 105 l27 20 -26 56
c-15 31 -27 57 -28 59 -1 1 -30 -15 -66 -37 -86 -52 -151 -71 -235 -66 -85 4
-152 33 -193 83 -52 63 -57 100 -59 400 l-2 272 48 1 c27 0 147 1 268 2 l220
2 2 68 1 67 -269 0 -269 0 0 120 c0 120 -2 127 -35 115z"/>
<path d="M13910 12549 c-203 -23 -330 -144 -318 -302 2 -29 12 -69 22 -89 30
-62 135 -125 261 -157 39 -10 185 -44 195 -46 84 -15 188 -88 191 -133 5 -80
-22 -124 -97 -159 -130 -59 -338 -27 -488 76 l-45 31 -35 -57 c-20 -32 -36
-62 -36 -69 0 -39 188 -121 320 -140 131 -18 295 2 377 46 139 75 206 246 144
373 -42 86 -162 153 -331 183 -62 11 -199 49 -237 66 -75 33 -99 91 -64 156
31 58 129 91 255 87 95 -4 127 -12 239 -65 38 -17 70 -30 72 -28 1 2 17 31 33
65 l31 61 -52 25 c-46 22 -132 54 -162 61 -73 18 -196 24 -275 15z"/>
<path d="M15261 12549 c-64 -12 -102 -39 -150 -107 -13 -18 -25 -31 -28 -28
-3 2 -10 28 -17 58 l-11 53 -55 3 -55 3 0 -504 0 -504 78 -1 77 0 0 353 0 352
32 63 c36 70 79 108 130 116 65 11 109 -26 122 -102 2 -16 5 -198 5 -405 l1
-376 75 0 c41 -1 76 2 76 6 1 3 2 159 4 346 1 302 4 345 20 385 38 94 100 150
165 150 44 -1 65 -17 86 -66 15 -34 17 -89 18 -429 l1 -390 78 -2 77 -3 -1
413 c-1 447 -5 489 -56 555 -35 46 -84 65 -163 64 -90 -1 -145 -27 -207 -97
l-51 -57 -7 30 c-3 17 -21 46 -40 65 -49 51 -122 70 -204 56z"/>
<path d="M24218 12555 c-2 -2 -21 -5 -43 -8 -22 -2 -49 -8 -60 -12 -77 -30
-117 -55 -167 -106 l-57 -58 -6 42 c-3 23 -8 51 -10 62 -2 11 -4 28 -4 38 -1
15 -14 17 -136 17 -101 0 -135 -3 -136 -12 -4 -66 -3 -101 2 -110 4 -6 35 -11
70 -12 54 -1 62 -4 65 -21 10 -65 12 -168 13 -491 l1 -362 78 2 77 1 2 321 c1
309 2 324 23 364 69 136 216 214 345 185 91 -21 122 -47 154 -131 27 -70 30
-113 30 -450 l1 -291 80 0 80 -1 -1 352 c-1 370 -7 429 -49 518 -42 90 -121
142 -231 153 -35 4 -76 8 -91 10 -15 2 -28 2 -30 0z"/>
<path d="M25565 12543 c-196 -33 -328 -154 -379 -347 -19 -75 -19 -268 1 -343
36 -138 124 -254 233 -305 51 -23 72 -30 140 -43 38 -8 159 -7 215 0 106 15
255 76 312 128 l22 20 -26 46 c-35 62 -40 66 -55 54 -55 -46 -201 -99 -295
-110 -68 -7 -174 12 -233 42 -89 45 -146 137 -157 251 l-6 61 389 0 389 -1 -1
70 c-1 191 -41 307 -134 391 -91 83 -243 115 -415 86z m248 -153 c83 -39 126
-107 150 -234 1 -8 -84 -11 -308 -11 l-310 0 3 29 c9 76 72 169 137 204 84 44
246 51 328 12z"/>
<path d="M30090 12548 c-75 -11 -166 -58 -222 -114 -27 -26 -48 -51 -48 -56 0
-4 -4 -8 -9 -8 -5 0 -12 36 -16 80 l-7 80 -137 0 -136 0 0 -65 c0 -37 4 -65
10 -66 5 0 36 -1 68 -1 46 0 57 -4 58 -17 0 -9 3 -25 5 -36 3 -11 6 -200 7
-420 l2 -400 79 0 79 0 1 325 c1 312 2 327 23 365 62 115 183 191 297 186 100
-3 160 -40 194 -119 33 -76 35 -97 37 -432 1 -173 3 -318 4 -321 0 -4 36 -6
79 -5 l77 1 1 328 c0 181 -3 355 -8 387 -17 131 -68 224 -144 267 -65 37 -198
56 -294 41z"/>
<path d="M6608 12545 c-2 -2 -31 -6 -66 -9 -112 -11 -216 -60 -288 -135 -91
-97 -129 -219 -125 -408 3 -168 46 -303 122 -384 92 -97 277 -135 464 -95 26
6 94 49 127 80 20 20 38 36 40 36 9 0 0 -188 -11 -225 -23 -85 -79 -135 -175
-155 -127 -26 -291 -1 -375 59 l-28 20 -38 -71 -37 -71 22 -17 c59 -45 225
-78 361 -74 162 6 276 50 357 139 87 95 86 86 87 712 l0 542 -55 15 c-102 27
-166 37 -273 40 -59 2 -108 2 -109 1z m207 -154 c27 -7 54 -16 60 -21 12 -10
13 -456 1 -510 -22 -93 -87 -175 -164 -206 -57 -22 -163 -22 -229 0 -117 39
-186 178 -186 375 1 121 38 233 96 289 35 33 101 70 137 77 13 2 25 6 27 9 9
9 209 -2 258 -13z"/>
<path d="M8228 12527 c-45 -13 -89 -37 -138 -73 -39 -30 -73 -54 -74 -54 -2 0
-9 21 -16 48 -7 26 -14 55 -17 65 -4 15 -22 17 -194 17 l-189 0 0 -69 0 -70
108 1 c59 0 121 -1 137 -1 l30 -1 -2 -361 c0 -230 -5 -364 -11 -368 -6 -3 -67
-5 -136 -4 l-127 1 3 -66 3 -67 405 0 405 0 0 67 0 66 -190 0 -190 -1 -3 298
-2 299 27 28 c32 34 125 97 151 103 9 3 33 8 54 13 59 15 107 8 134 -20 28
-27 50 -108 49 -175 l-1 -43 74 0 73 0 -5 99 c-9 158 -45 238 -123 273 -55 24
-144 22 -235 -5z"/>
<path d="M9508 12545 c-2 -2 -28 -5 -58 -8 -116 -11 -280 -65 -280 -92 0 -13
35 -97 45 -106 3 -3 41 7 86 22 98 35 117 39 203 44 84 5 159 -10 192 -38 39
-34 60 -112 54 -199 -4 -58 -8 -72 -20 -69 -37 10 -310 9 -355 -1 -146 -32
-242 -111 -269 -220 -15 -62 -8 -154 14 -207 45 -102 143 -160 283 -165 129
-5 227 33 312 122 25 26 45 42 46 37 1 -24 10 -102 14 -121 4 -20 10 -21 137
-20 l133 1 0 65 0 64 -62 1 c-34 0 -66 4 -70 9 -4 4 -8 143 -8 309 0 166 -4
320 -9 342 -25 112 -107 196 -216 220 -32 7 -167 15 -172 10z m192 -570 c14
-2 31 -4 38 -4 15 -1 15 -119 0 -161 -14 -38 -87 -109 -143 -137 -85 -44 -220
-39 -273 10 -57 52 -70 147 -29 207 27 41 96 78 163 89 46 7 187 5 244 -4z"/>
<path d="M27288 12530 c-52 -16 -188 -96 -202 -119 -10 -15 -26 -14 -26 2 0 7
-7 37 -15 65 l-16 52 -188 0 -188 0 -2 -69 -1 -69 87 0 c49 0 111 -1 138 -1
l50 -1 0 -365 0 -365 -50 -1 c-27 0 -88 -1 -135 -2 l-85 -2 -2 -66 -2 -65 409
-1 408 0 1 67 1 67 -158 1 c-86 0 -173 1 -193 1 l-36 1 1 300 1 300 45 41 c95
85 234 128 302 93 33 -17 57 -78 63 -159 2 -33 4 -63 4 -67 1 -5 33 -8 72 -8
l71 0 -5 93 c-9 137 -26 198 -70 245 -50 54 -165 67 -279 32z"/>
<path d="M28503 12539 c-122 -15 -283 -68 -283 -93 0 -6 11 -35 25 -63 l24
-53 43 19 c86 37 204 60 286 57 153 -7 200 -53 206 -200 4 -108 2 -114 -45
-106 -58 11 -267 10 -328 -1 -119 -23 -209 -82 -251 -165 -30 -60 -37 -182
-14 -246 43 -122 172 -193 333 -183 110 6 189 41 262 117 27 28 49 47 50 42 0
-5 2 -18 4 -29 2 -11 6 -38 9 -60 2 -22 5 -43 5 -46 1 -3 61 -6 134 -5 l132 1
0 65 0 65 -65 0 -65 0 -6 45 c-4 25 -5 164 -3 310 3 290 -3 335 -52 410 -31
46 -101 96 -157 111 -52 14 -166 18 -244 8z m246 -564 l51 -7 0 -71 c0 -56 -5
-80 -21 -107 -89 -147 -317 -198 -416 -94 -34 37 -50 99 -39 151 7 33 39 72
77 97 58 37 207 51 348 31z"/>
<path d="M12115 12463 l0 -68 155 -2 c85 -1 164 -2 175 -2 20 -1 20 -7 20
-360 0 -198 -3 -363 -7 -367 -4 -4 -76 -7 -160 -6 -84 0 -160 -1 -168 -4 -12
-3 -15 -19 -15 -67 l0 -64 427 0 428 0 0 68 0 68 -162 -1 c-90 0 -167 1 -173
1 -7 1 -9 152 -8 436 l2 435 -258 0 -257 0 1 -67z"/>
<path d="M16551 12462 l2 -69 169 0 c93 -1 172 -4 176 -7 7 -8 7 -715 -1 -722
-3 -3 -81 -7 -174 -8 l-168 -1 -2 -66 -3 -66 428 1 427 1 1 66 2 66 -157 1
c-86 0 -163 1 -171 1 -13 1 -15 55 -15 436 l0 435 -258 0 -258 0 2 -68z"/>
<path d="M19686 12468 c1 -35 2 -66 3 -70 0 -3 75 -6 166 -6 91 1 169 -2 173
-6 10 -11 9 -717 -2 -723 -5 -3 -82 -6 -172 -6 -113 1 -164 -3 -166 -11 -4 -9
-3 -97 1 -117 1 -3 192 -6 426 -6 l425 0 0 67 0 67 -165 0 c-91 0 -169 3 -172
7 -3 3 -6 199 -6 436 l0 430 -256 0 -257 0 2 -62z"/>
<path d="M22295 12463 l1 -68 155 -2 c84 -1 163 -2 174 -2 20 -1 20 -8 20
-366 l0 -365 -30 -1 c-16 0 -94 -1 -172 -1 -159 -1 -149 5 -148 -83 l0 -50
425 0 425 0 2 66 2 66 -167 1 c-92 0 -169 1 -172 1 -3 1 -5 197 -5 436 l0 435
-256 0 -256 0 2 -67z"/>
<path d="M32472 12461 l0 -69 157 0 c86 0 165 -1 176 -1 20 -1 20 -8 19 -361
-1 -198 -4 -363 -7 -367 -4 -3 -82 -6 -175 -6 l-169 1 0 -67 -1 -68 427 1 426
1 0 65 0 65 -155 2 c-85 0 -162 1 -170 2 -13 1 -15 55 -15 436 l0 435 -256 0
-257 0 0 -69z"/>
</g>
</svg>
